<svg id="Layer_1" xmlns="http://www.w3.org/2000/svg" viewBox="-387 391 24 19"><style>.st0{fill:#FFFFFF;}</style><path class="st0" d="M-375.9 398.6c-1.4 1.3-2.1 2.8-2.1 4.6 0 .3 0 .6.1.9 0 .3.1.6.2.9h-1.4c-.2 0-.4 0-.6-.1l-.5-.1-.6-.1c-.3-.1-.5-.1-.6-.1l-3 1.5.8-2.5c-2.3-1.5-3.4-3.4-3.4-5.6 0-.8.1-1.5.4-2.2.3-.7.7-1.4 1.2-1.9.5-.6 1.1-1.1 1.8-1.5.7-.4 1.5-.8 2.3-1 .9-.2 1.8-.4 2.7-.4 2.1 0 4 .6 5.6 1.7 1.6 1.1 2.6 2.5 3 4.1h-.8c-2-.1-3.7.6-5.1 1.8zm-.3-3.8c-.3.2-.4.4-.4.7 0 .3.1.5.4.7.3.2.6.3.9.3.2 0 .4 0 .6-.1s.3-.2.4-.4.1-.3.1-.5c0-.3-.1-.5-.3-.7-.2-.2-.5-.3-.8-.3-.4 0-.7.1-.9.3zm-4.3 1.5c.2-.2.3-.4.3-.8s-.1-.6-.3-.8c-.2-.2-.4-.3-.8-.3-.2 0-.4 0-.6.1-.2.1-.4.2-.5.4-.1.2-.2.3-.2.5s.1.4.2.5c.1.2.3.3.5.4.2.1.4.1.6.1.3.2.6.1.8-.1zm14.5 11.6l.6 2-2.3-1.2c-1.1.3-2 .4-2.6.4-2 0-3.7-.6-5.1-1.8-1.4-1.2-2.1-2.6-2.1-4.2 0-1.7.7-3.1 2.1-4.2 1.4-1.2 3.1-1.8 5.1-1.8 1.3 0 2.4.3 3.6.8 1.1.5 2 1.3 2.7 2.2.7.9 1 1.9 1 3 0 1.8-1 3.4-3 4.8zm-6.1-5.8c.1 0 .2-.1.3-.2.1-.1.2-.2.2-.3.1-.1.1-.2.1-.3 0-.2-.1-.4-.3-.6-.2-.2-.5-.3-.8-.3-.1 0-.3 0-.4.1l-.3.3c-.1.1-.1.3-.1.4 0 .2.1.4.3.6.2.2.4.3.6.3h.4zm4.6 0c.1 0 .3-.1.3-.2.1-.1.2-.2.2-.3.1-.1.1-.2.1-.3 0-.2-.1-.4-.3-.6-.2-.2-.5-.3-.8-.3-.2 0-.4.1-.6.3-.2.2-.3.4-.3.6 0 .1 0 .3.1.4l.3.3c.1.1.3.1.4.1h.6z"/></svg>