<svg id="Layer_1" xmlns="http://www.w3.org/2000/svg" viewBox="-387 391 24 20"><style>.st0{fill:#FFFFFF;}</style><path class="st0" d="M-369.3 401.1c-.3-.1-.6-.2-.4-.6.4-.9.4-1.7 0-2.3-.8-1.1-2.9-1-5.2 0 0 0-.8.3-.6-.3.4-1.2.3-2.1-.3-2.7-1.3-1.3-4.8 0-7.7 3-2.2 2.2-3.5 4.5-3.5 6.5 0 3.8 5 6.4 9.9 6.4 6.4 0 10.6-3.9 10.6-6.8 0-1.8-1.5-2.8-2.8-3.2zm-7.8 8.2c-3.9.4-7.2-1.3-7.5-3.8-.3-2.5 2.7-4.8 6.6-5.2 3.9-.4 7.2 1.3 7.5 3.8.2 2.5-2.7 4.8-6.6 5.2zM-363 398c0-3.9-3.2-7-7.2-7-.5 0-.8.4-.8.8s.4.8.8.8c3.1 0 5.5 2.4 5.5 5.4 0 .5.4.8.8.8s.9-.4.9-.8zm-3.4-.1c-.4-1.8-1.9-3.2-3.8-3.6-.5-.1-.9.2-1 .6-.1.4.2.9.7 1 1.2.2 2.2 1.2 2.4 2.4.1.4.5.7 1 .6.5-.2.8-.6.7-1zm-12.7 4.9c-1.6.3-2.6 1.6-2.4 2.8.3 1.3 1.7 2 3.3 1.7 1.6-.3 2.6-1.6 2.4-2.8-.3-1.3-1.8-2-3.3-1.7z"/></svg>